<svg xmlns="http://www.w3.org/2000/svg" viewBox="0 0 1600 1000" preserveAspectRatio="xMidYMid slice">
<defs>
<linearGradient id="g" x1="0" y1="0" x2="1" y2="1"><stop offset="0" stop-color="#2F7BFF"></stop><stop offset="1" stop-color="#1FD3E8"></stop></linearGradient>
<radialGradient id="glow" cx="50%" cy="50%" r="50%"><stop offset="0" stop-color="#2F7BFF" stop-opacity=".55"></stop><stop offset="1" stop-color="#2F7BFF" stop-opacity="0"></stop></radialGradient>
<radialGradient id="glow2" cx="50%" cy="50%" r="50%"><stop offset="0" stop-color="#1FD3E8" stop-opacity=".4"></stop><stop offset="1" stop-color="#1FD3E8" stop-opacity="0"></stop></radialGradient>
<pattern id="dots" width="46" height="46" patternUnits="userSpaceOnUse"><circle cx="2" cy="2" r="2" fill="#ffffff" opacity=".07"></circle></pattern>
</defs>
<rect width="1600" height="1000" fill="#0B1220"></rect>
<circle cx="880" cy="200" r="520" fill="url(#glow)"></circle>
<circle cx="720" cy="800" r="460" fill="url(#glow2)"></circle>
<rect width="1600" height="1000" fill="url(#dots)"></rect>

<g>
<rect x="470" y="270" width="380" height="460" rx="28" fill="#ffffff" opacity=".13" stroke="#ffffff" stroke-opacity=".3" stroke-width="3"></rect>
<rect x="510" y="320" width="300" height="120" rx="16" fill="url(#g)"></rect>
<rect x="510" y="470" width="220" height="22" rx="11" fill="#ffffff" opacity=".38"></rect>
<rect x="510" y="514" width="300" height="22" rx="11" fill="#ffffff" opacity=".22"></rect>
<rect x="510" y="558" width="170" height="22" rx="11" fill="#ffffff" opacity=".22"></rect>
<rect x="510" y="628" width="150" height="52" rx="26" fill="#1FD3E8" opacity=".85"></rect>
<rect x="900" y="330" width="300" height="340" rx="24" fill="#ffffff" opacity=".08" stroke="#ffffff" stroke-opacity=".22" stroke-width="3"></rect>
<circle cx="1050" cy="440" r="58" fill="url(#g)" opacity=".9"></circle>
<rect x="950" y="540" width="200" height="20" rx="10" fill="#ffffff" opacity=".28"></rect>
<rect x="950" y="580" width="130" height="20" rx="10" fill="#ffffff" opacity=".18"></rect>
<path d="M1112 690 L1150 800 L1178 742 L1236 726 Z" fill="#ffffff" opacity=".9"></path>
</g>

</svg>